
<svg xmlns="http://www.w3.org/2000/svg" xmlns:xlink="http://www.w3.org/1999/xlink" viewBox="0 0 280 250" preserveAspectRatio="xMidYMid" style="display: block; shape-rendering: auto; background: transparent;" width="280" height="250"><style>
  .ld-text text {
    text-anchor: middle;
    dominant-baseline: middle;
    font-size: 46px;
    opacity: 0;
    user-select: none;
    pointer-events: none;
  }
  @keyframes animate-ydjdf217jw { 0.00% {transform: translate(0.00px,0.00px) rotate(0.00deg) scale(1.00, 1.00) skew(0deg, 0.00deg) ;opacity: 1.00;}2.00% {animation-timing-function: cubic-bezier(0.20,0.39,0.50,0.97);transform: translate(0.00px,-1.08px) rotate(0.00deg) ;}36.00% {animation-timing-function: cubic-bezier(0.50,0.03,0.80,0.61);transform: translate(0.00px,-10.00px) rotate(0.00deg) ;}72.00% {transform: translate(0.00px,-0.12px) rotate(0.00deg) ;}74.00% {animation-timing-function: cubic-bezier(0.24,0.43,0.48,0.91);transform: translate(0.00px,0.00px) rotate(0.00deg) scale(1.00, 0.95) ;}86.00% {animation-timing-function: cubic-bezier(0.53,0.08,0.77,0.57);transform: translate(0.00px,0.00px) rotate(0.00deg) scale(1.00, 0.80) ;}100.00% {animation-timing-function: cubic-bezier(0.53,0.08,0.77,0.57);transform: translate(0.00px,0.00px) rotate(0.00deg) scale(1.00, 1.00) ;} }
</style>
<g style="transform-origin:140px 125px;transform:scale(1)" class="ld-text">
<g transform="translate(140,125)">
  <g transform="scale(0.5750) translate(0,0)"><g class="path" style="opacity: 1; transform-origin: -139.98px 16.12px; transform: matrix3d(1, 0, 0, 0, 0, 1, 0, 0, 0, 0, 1, 0, 0, 0, 0, 1); animation: 1.81818s linear -1.05s infinite normal forwards running animate-ydjdf217jw; transform-box: view-box;"><path d="M60.90 26.54L60.90 26.54Q60.90 30.64 59.80 34.33Q58.71 38.02 56.74 41.15Q54.77 44.27 52.03 46.79Q49.30 49.31 46 51.07Q42.70 52.83 38.93 53.78Q35.16 54.74 31.17 54.74L31.17 54.74L6.37 54.74L6.37-1.51L31.17-1.51Q35.16-1.51 38.91-0.57Q42.66 0.36 45.96 2.10Q49.26 3.84 52.01 6.34Q54.77 8.84 56.74 11.95Q58.71 15.05 59.80 18.74Q60.90 22.44 60.90 26.54 zM45.16 26.54L45.16 26.54Q45.16 21.97 44.04 17.85Q42.93 13.72 40.59 10.60Q38.24 7.47 34.63 5.64Q31.02 3.80 25.98 3.80L25.98 3.80L21.88 3.80L21.88 49.27L25.98 49.27Q30.94 49.27 34.55 47.42Q38.16 45.56 40.53 42.42Q42.89 39.27 44.02 35.17Q45.16 31.07 45.16 26.54" style="fill: rgb(59, 69, 233);" transform="translate(-173.610,-27.372)"></path></g><g class="path" style="opacity: 1; transform-origin: -81.95px 18.85px; transform: matrix3d(1, 0, 0, 0, 0, 1, 0, 0, 0, 0, 1, 0, 0, 0, 0, 1); animation: 1.81818s linear -0.9s infinite normal forwards running animate-ydjdf217jw; transform-box: view-box;"><path d="M116.84 32.08L116.84 32.08Q116.84 35.60 115.90 38.69Q114.96 41.77 113.30 44.39Q111.64 47.01 109.30 49.10Q106.95 51.19 104.16 52.63Q101.37 54.08 98.18 54.86Q95 55.64 91.64 55.64L91.64 55.64Q88.28 55.64 85.12 54.86Q81.95 54.08 79.16 52.63Q76.37 51.19 74.02 49.10Q71.68 47.01 70.02 44.39Q68.36 41.77 67.42 38.67Q66.48 35.56 66.48 32.08L66.48 32.08Q66.48 28.61 67.42 25.50Q68.36 22.40 70.02 19.78Q71.68 17.16 74.02 15.07Q76.37 12.98 79.16 11.54Q81.95 10.09 85.12 9.31Q88.28 8.53 91.64 8.53L91.64 8.53Q95 8.53 98.18 9.31Q101.37 10.09 104.16 11.54Q106.95 12.98 109.30 15.07Q111.64 17.16 113.30 19.78Q114.96 22.40 115.90 25.50Q116.84 28.61 116.84 32.08 zM103.40 32.08L103.40 32.08Q103.40 30.21 103.18 28.12Q102.97 26.03 102.46 24.02Q101.95 22.01 101.07 20.15Q100.20 18.29 98.91 16.91Q97.62 15.52 95.82 14.68Q94.02 13.84 91.64 13.84L91.64 13.84Q89.38 13.84 87.62 14.70Q85.86 15.56 84.55 16.99Q83.24 18.41 82.36 20.29Q81.48 22.16 80.94 24.17Q80.39 26.19 80.16 28.24Q79.92 30.29 79.92 32.08L79.92 32.08Q79.92 33.88 80.16 35.93Q80.39 37.98 80.94 40.01Q81.48 42.04 82.36 43.90Q83.24 45.76 84.55 47.18Q85.86 48.61 87.62 49.47Q89.38 50.33 91.64 50.33L91.64 50.33Q93.98 50.33 95.78 49.49Q97.58 48.65 98.89 47.24Q100.20 45.83 101.05 44Q101.91 42.16 102.44 40.13Q102.97 38.10 103.18 36.03Q103.40 33.96 103.40 32.08" style="fill: rgb(59, 69, 233);" transform="translate(-173.610,-27.372)"></path></g><g class="path" style="opacity: 1; transform-origin: -30.47px 18.85px; transform: matrix3d(1, 0, 0, 0, 0, 1, 0, 0, 0, 0, 1, 0, 0, 0, 0, 1); animation: 1.81818s linear -0.75s infinite normal forwards running animate-ydjdf217jw; transform-box: view-box;"><path d="M163.98 40.33L163.98 40.33Q163.98 43.29 163.13 45.60Q162.27 47.90 160.78 49.60Q159.30 51.30 157.27 52.45Q155.23 53.61 152.91 54.31Q150.59 55.01 148.05 55.33Q145.51 55.64 143.01 55.64L143.01 55.64Q139.65 55.64 137.07 55.21Q134.49 54.78 132.15 53.82Q129.80 52.86 127.48 51.34Q125.16 49.82 122.30 47.63L122.30 47.63L130 41.34Q131.05 43.33 132.79 44.95Q134.53 46.58 136.41 47.75Q138.28 48.92 140.04 49.54Q141.80 50.17 142.89 50.17L142.89 50.17Q143.79 50.17 144.92 50.11Q146.05 50.05 147.23 49.88Q148.40 49.70 149.53 49.35Q150.66 49 151.54 48.39Q152.42 47.79 152.95 46.87Q153.48 45.95 153.48 44.66L153.48 44.66Q153.48 43.33 152.79 42.34Q152.11 41.34 151.02 40.60Q149.92 39.86 148.52 39.35Q147.11 38.84 145.68 38.45Q144.26 38.06 142.93 37.77Q141.60 37.47 140.63 37.20L140.63 37.20Q138.83 36.69 136.84 36.17Q134.84 35.64 132.89 34.95Q130.94 34.27 129.16 33.33Q127.38 32.40 126.04 31.09Q124.69 29.78 123.89 28Q123.09 26.22 123.09 23.84L123.09 23.84Q123.09 19.47 124.82 16.52Q126.56 13.57 129.41 11.79Q132.27 10.01 135.90 9.27Q139.53 8.53 143.28 8.53L143.28 8.53Q145.86 8.53 148.71 9.06Q151.56 9.58 154.26 10.62Q156.95 11.65 159.30 13.14Q161.64 14.62 163.20 16.54L163.20 16.54L155.51 22.86Q154.65 20.52 153.26 18.84Q151.88 17.16 150.25 16.09Q148.63 15.01 146.93 14.51Q145.23 14 143.79 14L143.79 14Q142.38 14 140.63 14.11Q138.87 14.23 137.32 14.78Q135.78 15.33 134.71 16.44Q133.63 17.55 133.63 19.51L133.63 19.51Q133.63 20.91 134.28 21.91Q134.92 22.90 135.98 23.63Q137.03 24.35 138.38 24.84Q139.73 25.33 141.13 25.70Q142.54 26.07 143.87 26.34Q145.20 26.61 146.25 26.93L146.25 26.93Q148.05 27.44 150.06 27.96Q152.07 28.49 154.02 29.17Q155.98 29.86 157.79 30.78Q159.61 31.69 160.98 33.02Q162.34 34.35 163.16 36.13Q163.98 37.90 163.98 40.33" style="fill: rgb(59, 69, 233);" transform="translate(-173.610,-27.372)"></path></g><g class="path" style="opacity: 1; transform-origin: 21.76px 22.71px; transform: matrix3d(1, 0, 0, 0, 0, 1, 0, 0, 0, 0, 1, 0, 0, 0, 0, 1); animation: 1.81818s linear -0.6s infinite normal forwards running animate-ydjdf217jw; transform-box: view-box;"><path d="M218.44 28.88L218.44 28.88Q218.44 33.45 217.32 38.41Q216.21 43.37 214.22 48.14Q212.23 52.90 209.45 57.10Q206.68 61.30 203.36 64.35L203.36 64.35L198.40 61.65Q199.45 59.70 200.39 57.28Q201.33 54.86 202.09 52.14Q202.85 49.43 203.46 46.54Q204.06 43.65 204.47 40.81Q204.88 37.98 205.10 35.31Q205.31 32.63 205.31 30.33L205.31 30.33Q205.31 28.80 205.20 27.06Q205.08 25.33 204.71 23.59Q204.34 21.85 203.71 20.25Q203.09 18.65 202.05 17.44Q201.02 16.22 199.55 15.48Q198.09 14.74 196.09 14.74L196.09 14.74Q194.14 14.74 192.62 15.62Q191.09 16.50 189.92 17.92Q188.75 19.35 187.91 21.19Q187.07 23.02 186.54 24.95Q186.02 26.89 185.78 28.76Q185.55 30.64 185.55 32.12L185.55 32.12L185.55 54.74L172.30 54.74L172.30-6.98L185.51-6.98L185.51 16.26Q188.05 12.55 191.74 10.54Q195.43 8.53 199.92 8.53L199.92 8.53Q204.61 8.53 208.09 10.05Q211.56 11.58 213.87 14.29Q216.17 17.01 217.30 20.74Q218.44 24.47 218.44 28.88" style="fill: rgb(59, 69, 233);" transform="translate(-173.610,-27.372)"></path></g><g class="path" style="opacity: 1; transform-origin: 60.2px -24.3px; transform: matrix3d(1, 0, 0, 0, 0, 1, 0, 0, 0, 0, 1, 0, 0, 0, 0, 1); animation: 1.81818s linear -0.45s infinite normal forwards running animate-ydjdf217jw; transform-box: view-box;"><path d="M241.02-1.28L241.02-1.28Q241.02 0.21 240.45 1.54Q239.88 2.86 238.91 3.84Q237.93 4.82 236.60 5.38Q235.27 5.95 233.79 5.95L233.79 5.95Q232.30 5.95 231 5.38Q229.69 4.82 228.71 3.84Q227.73 2.86 227.17 1.54Q226.60 0.21 226.60-1.28L226.60-1.28Q226.60-2.76 227.17-4.07Q227.73-5.38 228.71-6.35Q229.69-7.33 231-7.90Q232.30-8.46 233.79-8.46L233.79-8.46Q235.27-8.46 236.60-7.90Q237.93-7.33 238.91-6.35Q239.88-5.38 240.45-4.07Q241.02-2.76 241.02-1.28" style="fill: rgb(59, 69, 233);" transform="translate(-173.610,-27.372)"></path></g><g class="path" style="opacity: 1; transform-origin: 60.2px 18.35px; transform: matrix3d(1, 0, 0, 0, 0, 1, 0, 0, 0, 0, 1, 0, 0, 0, 0, 1); animation: 1.81818s linear -0.3s infinite normal forwards running animate-ydjdf217jw; transform-box: view-box;"><path d="M240.43 9.66L240.43 54.74L227.19 54.74L227.19 9.66L240.43 9.66" style="fill: rgb(59, 69, 233);" transform="translate(-173.610,-27.372)"></path></g><g class="path" style="opacity: 1; transform-origin: 100.36px 18.85px; transform: matrix3d(1, 0, 0, 0, 0, 1, 0, 0, 0, 0, 1, 0, 0, 0, 0, 1); animation: 1.81818s linear -0.15s infinite normal forwards running animate-ydjdf217jw; transform-box: view-box;"><path d="M299.14 32.08L299.14 32.08Q299.14 35.60 298.20 38.69Q297.27 41.77 295.61 44.39Q293.95 47.01 291.60 49.10Q289.26 51.19 286.46 52.63Q283.67 54.08 280.49 54.86Q277.30 55.64 273.95 55.64L273.95 55.64Q270.59 55.64 267.42 54.86Q264.26 54.08 261.46 52.63Q258.67 51.19 256.33 49.10Q253.98 47.01 252.32 44.39Q250.66 41.77 249.73 38.67Q248.79 35.56 248.79 32.08L248.79 32.08Q248.79 28.61 249.73 25.50Q250.66 22.40 252.32 19.78Q253.98 17.16 256.33 15.07Q258.67 12.98 261.46 11.54Q264.26 10.09 267.42 9.31Q270.59 8.53 273.95 8.53L273.95 8.53Q277.30 8.53 280.49 9.31Q283.67 10.09 286.46 11.54Q289.26 12.98 291.60 15.07Q293.95 17.16 295.61 19.78Q297.27 22.40 298.20 25.50Q299.14 28.61 299.14 32.08 zM285.70 32.08L285.70 32.08Q285.70 30.21 285.49 28.12Q285.27 26.03 284.77 24.02Q284.26 22.01 283.38 20.15Q282.50 18.29 281.21 16.91Q279.92 15.52 278.13 14.68Q276.33 13.84 273.95 13.84L273.95 13.84Q271.68 13.84 269.92 14.70Q268.16 15.56 266.86 16.99Q265.55 18.41 264.67 20.29Q263.79 22.16 263.24 24.17Q262.70 26.19 262.46 28.24Q262.23 30.29 262.23 32.08L262.23 32.08Q262.23 33.88 262.46 35.93Q262.70 37.98 263.24 40.01Q263.79 42.04 264.67 43.90Q265.55 45.76 266.86 47.18Q268.16 48.61 269.92 49.47Q271.68 50.33 273.95 50.33L273.95 50.33Q276.29 50.33 278.09 49.49Q279.88 48.65 281.19 47.24Q282.50 45.83 283.36 44Q284.22 42.16 284.75 40.13Q285.27 38.10 285.49 36.03Q285.70 33.96 285.70 32.08" style="fill: rgb(59, 69, 233);" transform="translate(-173.610,-27.372)"></path></g><g class="path" style="opacity: 1; transform-origin: 156.91px 25.81px; transform: matrix3d(1, 0, 0, 0, 0, 1, 0, 0, 0, 0, 1, 0, 0, 0, 0, 1); animation: 1.81818s linear 0s infinite normal forwards running animate-ydjdf217jw; transform-box: view-box;"><path d="M353.59 28.88L353.59 28.88Q353.59 33.45 352.48 38.41Q351.37 43.37 349.38 48.14Q347.38 52.90 344.61 57.10Q341.84 61.30 338.52 64.35L338.52 64.35L333.55 61.65Q334.61 59.70 335.55 57.28Q336.48 54.86 337.25 52.14Q338.01 49.43 338.61 46.54Q339.22 43.65 339.63 40.81Q340.04 37.98 340.25 35.31Q340.47 32.63 340.47 30.33L340.47 30.33Q340.47 28.80 340.35 27.06Q340.23 25.33 339.86 23.59Q339.49 21.85 338.87 20.25Q338.24 18.65 337.21 17.44Q336.17 16.22 334.71 15.48Q333.24 14.74 331.25 14.74L331.25 14.74Q329.30 14.74 327.77 15.62Q326.25 16.50 325.08 17.92Q323.91 19.35 323.07 21.19Q322.23 23.02 321.70 24.95Q321.17 26.89 320.94 28.76Q320.70 30.64 320.70 32.12L320.70 32.12L320.70 54.74L307.46 54.74L307.46 9.62L312.54 9.62L318.59 20.13Q319.69 17.51 321.33 15.36Q322.97 13.22 325.04 11.69Q327.11 10.17 329.63 9.35Q332.15 8.53 335.08 8.53L335.08 8.53Q339.77 8.53 343.24 10.05Q346.72 11.58 349.02 14.29Q351.33 17.01 352.46 20.74Q353.59 24.47 353.59 28.88" style="fill: rgb(59, 69, 233);" transform="translate(-173.610,-27.372)"></path></g></g><text dy="0.35em" fill="#3b45e9" font-family="Aclonica" font-size="46">Doshion</text>
</g>
</g></svg>